
##      ## ########     ###    ######## ##     ## 
##  ##  ## ##     ##   ## ##      ##    ##     ## 
##  ##  ## ##     ##  ##   ##     ##    ##     ## 
##  ##  ## ########  ##     ##    ##    ######### 
##  ##  ## ##   ##   #########    ##    ##     ## 
##  ##  ## ##    ##  ##     ##    ##    ##     ## 
 ###  ###  ##     ## ##     ##    ##    ##     ## 

File Name : Road Kill 2010 DVDRip H264-Wrath.mp4

File Size
Format : MPEG-4
Format profile : Base Media
Codec ID : isom
File size : 2.10 GiB
Duration : 1h 30mn
Overall bit rate : 3 334 Kbps

Video
ID : 1
Format : AVC
Format/Info : Advanced Video Codec
Format profile : High@L4.1
Format settings, CABAC : Yes
Format settings, ReFrames : 3 frames
Codec ID : avc1
Codec ID/Info : Advanced Video Coding
Duration : 1h 30mn
Bit rate mode : Variable
Bit rate : 2 799 Kbps
Maximum bit rate : 10.9 Mbps
Width : 720 pixels
Height : 400 pixels
Display aspect ratio : 16:9
Frame rate mode : Constant
Frame rate : 23.976 fps
Resolution : 24 bits
Colorimetry : 4:2:0
Scan type : Progressive
Bits/(Pixel*Frame) : 0.405
Stream size : 1.76 GiB (84%)

Audio #1
ID : 2
Format : AAC
Format/Info : Advanced Audio Codec
Format version : Version 4
Format profile : LC
Format settings, SBR : No
Codec ID : 40
Duration : 1h 30mn
Bit rate mode : Variable
Bit rate : 151 Kbps
Maximum bit rate : 223 Kbps
Channel(s) : 2 channels
Channel positions : L R
Sampling rate : 48.0 KHz
Resolution : 16 bits
Stream size : 97.3 MiB (5%)

Audio #2
ID : 3
Format : AAC
Format/Info : Advanced Audio Codec
Format version : Version 4
Format profile : LC
Format settings, SBR : No
Codec ID : 40
Duration : 1h 30mn
Bit rate mode : Variable
Bit rate : 384 Kbps
Maximum bit rate : 508 Kbps
Channel(s) : 6 channels
Channel positions : Front: L C R, Rear: L R, LFE
Sampling rate : 48.0 KHz
Resolution : 16 bits
Stream size : 244 MiB (11%)

Language : English


Original Title: Road Train 
Genre: Horror | Sci-Fi | Thriller 
Plot: The teenagers Marcus, Liz, Craig and Nina are camping in the remote outback of Australia. While driving on the road, a road train crashes on their car that leaves the road in a serious accident. The quartet survives and Craig breaks his arm, but their car is totally wrecked. However they see the train truck parked on road and Marcus and Liz walk to the vehicle to ask for help. They do not find the driver and soon Craig and Nina arrive. When they see the driver shooting at them, they decide to carjack the road train. Soon they begin to act strange possessed by some evil force.
Cast:
Xavier Samuel ... Marcus
Bob Morley ... Craig
Georgina Haig ... Liz
Sophie Lowe ... Nina
David Argue ... The Psycho





================================== 
http://thepiratebay.org/user/hiest
==================================





Screen SHots:
 
http://leetleech.org/images/18734445069153073441.png
 
http://leetleech.org/images/72387175111567145001.png
 
http://leetleech.org/images/90412100005271414117.png
 
http://leetleech.org/images/28154478235904104649.png
 
http://leetleech.org/images/50234825866314266325.png


##      ## ########     ###    ######## ##     ## 
##  ##  ## ##     ##   ## ##      ##    ##     ## 
##  ##  ## ##     ##  ##   ##     ##    ##     ## 
##  ##  ## ########  ##     ##    ##    ######### 
##  ##  ## ##   ##   #########    ##    ##     ## 
##  ##  ## ##    ##  ##     ##    ##    ##     ## 
 ###  ###  ##     ## ##     ##    ##    ##     ## 


